<mxfile host="app.diagrams.net" modified="2024-02-01T04:44:43.509Z" agent="Mozilla/5.0 (Windows NT 10.0; Win64; x64) AppleWebKit/537.36 (KHTML, like Gecko) Chrome/121.0.0.0 Safari/537.36" etag="O2hXL-mrnV6l--_ZQcTY" version="23.0.2" type="device">
  <diagram name="Page-1" id="jT2SBeqgrpjNxPlv2E6v">
    <mxGraphModel dx="1126" dy="732" grid="1" gridSize="10" guides="1" tooltips="1" connect="1" arrows="1" fold="1" page="1" pageScale="1" pageWidth="1100" pageHeight="850" math="0" shadow="0">
      <root>
        <mxCell id="0" />
        <mxCell id="1" parent="0" />
        <mxCell id="Uovh46UTTe6WOonXCwlF-132" value="User Service" style="swimlane;whiteSpace=wrap;html=1;" vertex="1" parent="1">
          <mxGeometry x="50" y="80" width="670" height="680" as="geometry" />
        </mxCell>
        <mxCell id="Uovh46UTTe6WOonXCwlF-148" value="User" style="swimlane;fontStyle=1;align=center;verticalAlign=top;childLayout=stackLayout;horizontal=1;startSize=26;horizontalStack=0;resizeParent=1;resizeParentMax=0;resizeLast=0;collapsible=1;marginBottom=0;whiteSpace=wrap;html=1;" vertex="1" parent="Uovh46UTTe6WOonXCwlF-132">
          <mxGeometry x="20" y="36" width="110" height="86" as="geometry" />
        </mxCell>
        <mxCell id="Uovh46UTTe6WOonXCwlF-149" value="- (all attributes)" style="text;strokeColor=none;fillColor=none;align=left;verticalAlign=top;spacingLeft=4;spacingRight=4;overflow=hidden;rotatable=0;points=[[0,0.5],[1,0.5]];portConstraint=eastwest;whiteSpace=wrap;html=1;" vertex="1" parent="Uovh46UTTe6WOonXCwlF-148">
          <mxGeometry y="26" width="110" height="26" as="geometry" />
        </mxCell>
        <mxCell id="Uovh46UTTe6WOonXCwlF-150" value="" style="line;strokeWidth=1;fillColor=none;align=left;verticalAlign=middle;spacingTop=-1;spacingLeft=3;spacingRight=3;rotatable=0;labelPosition=right;points=[];portConstraint=eastwest;strokeColor=inherit;" vertex="1" parent="Uovh46UTTe6WOonXCwlF-148">
          <mxGeometry y="52" width="110" height="8" as="geometry" />
        </mxCell>
        <mxCell id="Uovh46UTTe6WOonXCwlF-151" value="+ getters / setters" style="text;strokeColor=none;fillColor=none;align=left;verticalAlign=top;spacingLeft=4;spacingRight=4;overflow=hidden;rotatable=0;points=[[0,0.5],[1,0.5]];portConstraint=eastwest;whiteSpace=wrap;html=1;" vertex="1" parent="Uovh46UTTe6WOonXCwlF-148">
          <mxGeometry y="60" width="110" height="26" as="geometry" />
        </mxCell>
        <mxCell id="Uovh46UTTe6WOonXCwlF-152" value="UserDTO" style="swimlane;fontStyle=1;align=center;verticalAlign=top;childLayout=stackLayout;horizontal=1;startSize=26;horizontalStack=0;resizeParent=1;resizeParentMax=0;resizeLast=0;collapsible=1;marginBottom=0;whiteSpace=wrap;html=1;" vertex="1" parent="Uovh46UTTe6WOonXCwlF-132">
          <mxGeometry x="180" y="36" width="110" height="86" as="geometry" />
        </mxCell>
        <mxCell id="Uovh46UTTe6WOonXCwlF-153" value="- (all attributes)" style="text;strokeColor=none;fillColor=none;align=left;verticalAlign=top;spacingLeft=4;spacingRight=4;overflow=hidden;rotatable=0;points=[[0,0.5],[1,0.5]];portConstraint=eastwest;whiteSpace=wrap;html=1;" vertex="1" parent="Uovh46UTTe6WOonXCwlF-152">
          <mxGeometry y="26" width="110" height="26" as="geometry" />
        </mxCell>
        <mxCell id="Uovh46UTTe6WOonXCwlF-154" value="" style="line;strokeWidth=1;fillColor=none;align=left;verticalAlign=middle;spacingTop=-1;spacingLeft=3;spacingRight=3;rotatable=0;labelPosition=right;points=[];portConstraint=eastwest;strokeColor=inherit;" vertex="1" parent="Uovh46UTTe6WOonXCwlF-152">
          <mxGeometry y="52" width="110" height="8" as="geometry" />
        </mxCell>
        <mxCell id="Uovh46UTTe6WOonXCwlF-155" value="+ getters / setters" style="text;strokeColor=none;fillColor=none;align=left;verticalAlign=top;spacingLeft=4;spacingRight=4;overflow=hidden;rotatable=0;points=[[0,0.5],[1,0.5]];portConstraint=eastwest;whiteSpace=wrap;html=1;" vertex="1" parent="Uovh46UTTe6WOonXCwlF-152">
          <mxGeometry y="60" width="110" height="26" as="geometry" />
        </mxCell>
        <mxCell id="Uovh46UTTe6WOonXCwlF-156" value="«interface»&lt;br&gt;&lt;b&gt;UserMapper&lt;/b&gt;" style="html=1;whiteSpace=wrap;" vertex="1" parent="Uovh46UTTe6WOonXCwlF-132">
          <mxGeometry x="101" y="136" width="110" height="50" as="geometry" />
        </mxCell>
        <mxCell id="Uovh46UTTe6WOonXCwlF-158" value="&lt;p style=&quot;margin:0px;margin-top:4px;text-align:center;&quot;&gt;&lt;i&gt;&amp;lt;&amp;lt;Interface&amp;gt;&amp;gt;&lt;/i&gt;&lt;br&gt;&lt;b&gt;IUserCrud&lt;/b&gt;&lt;/p&gt;&lt;hr size=&quot;1&quot;&gt;&lt;p style=&quot;margin:0px;margin-left:4px;&quot;&gt;(none)&lt;/p&gt;&lt;hr size=&quot;1&quot;&gt;&lt;p style=&quot;margin:0px;margin-left:4px;&quot;&gt;+ searchUserByRole(Integer): Iterable&lt;br&gt;+ switchAdminPriviledges(String)&lt;/p&gt;" style="verticalAlign=top;align=left;overflow=fill;fontSize=12;fontFamily=Helvetica;html=1;whiteSpace=wrap;" vertex="1" parent="Uovh46UTTe6WOonXCwlF-132">
          <mxGeometry x="40.5" y="200" width="239" height="110" as="geometry" />
        </mxCell>
        <mxCell id="Uovh46UTTe6WOonXCwlF-159" value="&lt;p style=&quot;margin:0px;margin-top:4px;text-align:center;&quot;&gt;&lt;b&gt;UserRepository&lt;/b&gt;&lt;/p&gt;&lt;hr size=&quot;1&quot;&gt;&lt;p style=&quot;margin:0px;margin-left:4px;&quot;&gt;- CRUD_INSTANCE: IUserCrud&lt;/p&gt;&lt;hr size=&quot;1&quot;&gt;&lt;p style=&quot;margin:0px;margin-left:4px;&quot;&gt;+ (all IUserCrud methods)&lt;/p&gt;" style="verticalAlign=top;align=left;overflow=fill;fontSize=12;fontFamily=Helvetica;html=1;whiteSpace=wrap;" vertex="1" parent="Uovh46UTTe6WOonXCwlF-132">
          <mxGeometry x="40.5" y="327" width="240" height="80" as="geometry" />
        </mxCell>
        <mxCell id="Uovh46UTTe6WOonXCwlF-161" value="&lt;p style=&quot;margin:0px;margin-top:4px;text-align:center;&quot;&gt;&lt;i&gt;&amp;lt;&amp;lt;Enum&amp;gt;&amp;gt;&lt;/i&gt;&lt;br&gt;&lt;b&gt;UserRole&lt;/b&gt;&lt;/p&gt;&lt;hr size=&quot;1&quot;&gt;&lt;p style=&quot;margin:0px;margin-left:4px;&quot;&gt;id: Integer&lt;br&gt;&lt;/p&gt;&lt;hr size=&quot;1&quot;&gt;&lt;p style=&quot;margin:0px;margin-left:4px;&quot;&gt;+ getValue(): Integer&lt;/p&gt;" style="verticalAlign=top;align=left;overflow=fill;fontSize=12;fontFamily=Helvetica;html=1;whiteSpace=wrap;" vertex="1" parent="Uovh46UTTe6WOonXCwlF-132">
          <mxGeometry x="41.5" y="419" width="239" height="90" as="geometry" />
        </mxCell>
        <mxCell id="Uovh46UTTe6WOonXCwlF-162" value="&lt;p style=&quot;margin:0px;margin-top:4px;text-align:center;&quot;&gt;&lt;b&gt;UserService&lt;/b&gt;&lt;/p&gt;&lt;hr size=&quot;1&quot;&gt;&lt;p style=&quot;margin:0px;margin-left:4px;&quot;&gt;- REPO_INSTANCE: UserRepository&lt;/p&gt;&lt;p style=&quot;margin:0px;margin-left:4px;&quot;&gt;- USER_MAPPER: UserMapper&lt;/p&gt;&lt;hr size=&quot;1&quot;&gt;&lt;p style=&quot;margin:0px;margin-left:4px;&quot;&gt;+ (all UserRepository methods)&lt;/p&gt;" style="verticalAlign=top;align=left;overflow=fill;fontSize=12;fontFamily=Helvetica;html=1;whiteSpace=wrap;" vertex="1" parent="Uovh46UTTe6WOonXCwlF-132">
          <mxGeometry x="41.5" y="524" width="240" height="96" as="geometry" />
        </mxCell>
      </root>
    </mxGraphModel>
  </diagram>
</mxfile>
